<?xml version="1.0" encoding="utf-8"?>
<!-- Generator: Adobe Illustrator 25.4.1, SVG Export Plug-In . SVG Version: 6.00 Build 0)  -->
<svg version="1.1" id="Layer_1" xmlns="http://www.w3.org/2000/svg" xmlns:xlink="http://www.w3.org/1999/xlink" x="0px" y="0px"
	 viewBox="0 0 319.66 35.54" style="enable-background:new 0 0 319.66 35.54;" xml:space="preserve">
<style type="text/css">
	.st0{fill:#00F9FF;}
	.st1{fill:#7244FB;}
	.st2{fill:#212121;}
</style>
<g>
	<g>
		<polygon class="st1" points="11.81,7.65 19.79,15.86 23.62,12.14 11.81,0 0,12.14 3.82,15.86 		"/>
		<polygon class="st1" points="11.81,27.89 3.82,19.67 0,23.39 11.81,35.54 23.62,23.39 19.79,19.67 		"/>
	</g>
	<g>
		<g>
			<path class="st2" d="M47.28,9.49c3.12,0,4.9,1.84,5.13,4.55h8.22c-0.64-7.4-6.06-11.6-13.58-11.6c-8.04,0-14.4,5.36-14.4,15.33
				c0,9.92,6.18,15.33,14.4,15.33c8.74,0,13.17-6.06,13.58-11.13l-8.22-0.06c-0.41,2.55-2.21,4.14-5.19,4.14
				c-3.95,0-6.24-2.8-6.24-8.28C40.98,12.58,43.2,9.49,47.28,9.49z"/>
			<path class="st2" d="M78.7,2.44c-8.16,0-14.51,5.36-14.51,15.33c0,9.91,6.35,15.33,14.51,15.33c8.1,0,14.51-5.36,14.51-15.33
				C93.22,7.8,86.8,2.44,78.7,2.44z M78.7,26.05c-4.02,0-6.18-2.92-6.18-8.28s2.16-8.28,6.18-8.28s6.18,2.91,6.18,8.28
				S82.72,26.05,78.7,26.05z"/>
			<polygon class="st2" points="114.32,19.75 113.97,19.75 107.04,2.85 96.95,2.85 96.95,32.69 104.88,32.69 104.88,15.32 
				105.11,15.32 111.76,32.46 116.54,32.46 123.18,15.44 123.42,15.44 123.42,32.69 131.34,32.69 131.34,2.85 121.26,2.85 			"/>
			<polygon class="st2" points="135.2,32.69 156.65,32.69 156.65,26.16 143.3,26.16 143.3,21.03 155.6,21.03 155.6,14.5 143.3,14.5 
				143.3,9.37 156.71,9.37 156.71,2.85 135.2,2.85 			"/>
			<polygon class="st2" points="159.92,2.85 159.92,9.37 168.9,9.37 168.9,32.69 176.88,32.69 176.88,9.37 185.86,9.37 185.86,2.85 
							"/>
		</g>
		<g>
			<path class="st1" d="M214.66,17.13v-0.29c3.45-0.69,5.77-3.23,5.77-6.53c0-4.55-3.61-7.46-10.43-7.46h-12.94v29.84h14.05
				c6.49,0,10.49-3.54,10.49-8.45C221.6,20.03,218.49,17.27,214.66,17.13z M205.16,9.2h3.44c2.01,0,3.5,1.02,3.5,2.86
				c0,1.84-1.49,2.86-3.61,2.86h-3.32V9.2z M208.95,26.22h-3.79v-6.3h3.91c2.46,0,3.96,1.17,3.96,3.26
				C213.03,25.18,211.67,26.22,208.95,26.22z"/>
			<path class="st1" d="M248.42,12.99c0-6.35-4.44-10.14-11.07-10.14h-12.88v29.84h8.1v-9.85h2.8l5.25,9.85h8.8l-6.06-11.13
				C246.52,20.03,248.42,17.13,248.42,12.99z M235.42,16.54h-2.86V9.32h2.86c2.84,0,4.55,1.11,4.55,3.67
				C239.97,15.54,238.26,16.54,235.42,16.54z"/>
			<polygon class="st1" points="251.86,32.69 273.31,32.69 273.31,26.16 259.97,26.16 259.97,21.03 272.26,21.03 272.26,14.5 
				259.97,14.5 259.97,9.37 273.37,9.37 273.37,2.85 251.86,2.85 			"/>
			<polygon class="st1" points="310.62,2.85 306.54,21.26 306.31,21.26 301.47,2.85 294.36,2.85 289.52,21.21 289.29,21.21 
				285.21,2.85 276.18,2.85 284.98,32.69 292.73,32.69 297.8,16.02 298.03,16.02 303.11,32.69 310.86,32.69 319.66,2.85 			"/>
		</g>
	</g>
</g>
</svg>
