<?xml version="1.0" encoding="utf-8"?>
<!-- Generator: Adobe Illustrator 25.4.1, SVG Export Plug-In . SVG Version: 6.00 Build 0)  -->
<svg version="1.1" id="Layer_1" xmlns="http://www.w3.org/2000/svg" xmlns:xlink="http://www.w3.org/1999/xlink" x="0px" y="0px"
	 viewBox="0 0 314.46 35.54" style="enable-background:new 0 0 314.46 35.54;" xml:space="preserve">
<style type="text/css">
	.st0{fill:#00F9FF;}
	.st1{fill:#7244FB;}
</style>
<g>
	<g>
		<g>
			<path d="M47.16,9.47c3.13,0,4.91,1.84,5.14,4.56h8.24C59.89,6.61,54.46,2.4,46.92,2.4c-8.06,0-14.43,5.38-14.43,15.37
				c0,9.95,6.19,15.37,14.43,15.37c8.77,0,13.21-6.08,13.62-11.16l-8.24-0.06c-0.41,2.56-2.22,4.15-5.2,4.15
				c-3.96,0-6.25-2.8-6.25-8.3C40.85,12.57,43.07,9.47,47.16,9.47z"/>
			<path d="M77.14,2.81H64.22v29.92h8.12v-8.88h4.5c6.82,0,11.39-4.02,11.39-10.46C88.24,7.02,83.78,2.81,77.14,2.81z M75.21,17.53
				h-2.86V9.29h2.86c2.85,0,4.56,1.52,4.56,4.09C79.77,15.94,78.06,17.53,75.21,17.53z"/>
			<polygon points="108.63,19.75 108.28,19.75 101.33,2.81 91.22,2.81 91.22,32.73 99.17,32.73 99.17,15.31 99.4,15.31 
				106.06,32.49 110.86,32.49 117.52,15.43 117.75,15.43 117.75,32.73 125.7,32.73 125.7,2.81 115.59,2.81 			"/>
			<polygon points="129.56,32.73 151.06,32.73 151.06,26.18 137.68,26.18 137.68,21.04 150.01,21.04 150.01,14.5 137.68,14.5 
				137.68,9.35 151.12,9.35 151.12,2.81 129.56,2.81 			"/>
			<polygon points="154.34,2.81 154.34,9.35 163.34,9.35 163.34,32.73 171.34,32.73 171.34,9.35 180.34,9.35 180.34,2.81 			"/>
		</g>
		<g>
			<path class="st1" d="M209.21,17.12v-0.29c3.46-0.69,5.78-3.24,5.78-6.54c0-4.56-3.62-7.48-10.46-7.48h-12.97v29.92h14.08
				c6.5,0,10.52-3.55,10.52-8.47C216.16,20.03,213.05,17.27,209.21,17.12z M199.68,9.18h3.45c2.02,0,3.51,1.02,3.51,2.86
				c0,1.84-1.49,2.86-3.62,2.86h-3.33V9.18z M203.48,26.24h-3.8v-6.31h3.92c2.47,0,3.97,1.17,3.97,3.27
				C207.57,25.2,206.21,26.24,203.48,26.24z"/>
			<path class="st1" d="M243.05,12.98c0-6.37-4.46-10.17-11.1-10.17h-12.91v29.92h8.12v-9.88h2.8l5.26,9.88h8.82l-6.08-11.16
				C241.15,20.03,243.05,17.12,243.05,12.98z M230.02,16.54h-2.86V9.29h2.86c2.85,0,4.56,1.11,4.56,3.68
				C234.57,15.53,232.86,16.54,230.02,16.54z"/>
			<polygon class="st1" points="246.5,32.73 268,32.73 268,26.18 254.62,26.18 254.62,21.04 266.95,21.04 266.95,14.5 254.62,14.5 
				254.62,9.35 268.06,9.35 268.06,2.81 246.5,2.81 			"/>
			<polygon class="st1" points="305.4,2.81 301.31,21.27 301.08,21.27 296.23,2.81 289.1,2.81 284.25,21.22 284.01,21.22 
				279.92,2.81 270.87,2.81 279.69,32.73 287.46,32.73 292.55,16.01 292.78,16.01 297.86,32.73 305.63,32.73 314.46,2.81 			"/>
		</g>
	</g>
	<g>
		<polygon class="st1" points="11.81,7.65 19.79,15.86 23.62,12.14 11.81,0 0,12.14 3.82,15.86 		"/>
		<polygon class="st1" points="11.81,27.89 3.82,19.67 0,23.39 11.81,35.54 23.62,23.39 19.79,19.67 		"/>
	</g>
</g>
</svg>
